#!OML:ASF H:\LiuWeirdWalks\Patient Classification 1\Patient 1\Session 1\male.ASF
:FULLY-SPECIFIED
:DEGREES
612
root 2.559 17.9923 27.7523 -2.86256 0.267891 1.66271
lowerback 7.14451 4.19313 0.833751
upperback 0.358765 5.69 1.02896
thorax -3.64505 2.81938 0.018526
lowerneck -30.0466 -4.46477 -5.06547
upperneck 16.2088 -4.31145 1.53569
head 10.1625 -2.11267 0.629951
rclavicle 7.94393e-014 -1.59028e-015
rhumerus -39.3709 -36.8046 -59.382
rradius 17.4762
rwrist 11.923
rhand -13.8923 -1.37945
rfingers 7.12502
rthumb 12.233 -31.0017
lclavicle 7.94393e-014 -1.59028e-015
lhumerus -30.2799 -7.00052 95.5376
lradius 27.0018
lwrist 1.25192
lhand -15.7696 1.5011
lfingers 7.12502
lthumb 10.4224 31.2228
rfemur -15.3206 -8.38973 15.4622
rtibia 74.6551
rfoot 9.34355 -20.859
rtoes 1.10669
lfemur -13.6553 3.65257 -22.2407
ltibia 22.7675
lfoot -0.0382084 8.90553
ltoes -8.05078
613
root 2.57201 17.9954 27.8859 -2.91138 0.410577 1.68497
lowerback 7.27298 4.06873 0.857264
upperback 0.361185 5.5299 1.07598
thorax -3.71698 2.73902 0.0599297
lowerneck -29.8908 -4.4433 -5.07237
upperneck 16.1391 -4.28726 1.53029
head 10.1112 -2.10372 0.635829
rclavicle -2.04375e-015 1.59028e-014
rhumerus -39.5928 -35.5806 -60.0697
rradius 18.3013
rwrist 9.66699
rhand -13.8947 -1.16632
rfingers 7.12502
rthumb 12.2307 -30.7887
lclavicle -2.04375e-015 1.59028e-014
lhumerus -30.4266 -9.18659 96.477
lradius 28.2295
lwrist 1.75054
lhand -15.5018 1.31456
lfingers 7.12502
lthumb 10.6807 31.0231
rfemur -16.6137 -8.90598 15.5061
rtibia 74.8709
rfoot 7.6161 -20.0747
rtoes -0.434706
lfemur -13.283 3.5311 -22.3318
ltibia 23.0703
lfoot -0.560467 9.1872
ltoes -7.87682
614
root 2.5836 17.994 28.0158 -2.93321 0.574267 1.76183
lowerback 7.3987 3.88983 0.719914
upperback 0.355815 5.28541 1.15485
thorax -3.81293 2.61975 0.231953
lowerneck -29.7405 -4.32105 -4.95902
upperneck 16.0459 -4.15019 1.41936
head 10.0432 -2.04866 0.604134
rclavicle -1.87323e-014 5.56597e-015
rhumerus -39.7793 -34.4435 -60.673
rradius 19.1014
rwrist 7.61817
rhand -13.8263 -0.842216
rfingers 7.12502
rthumb 12.2966 -30.4607
lclavicle -1.87323e-014 5.56597e-015
lhumerus -30.5818 -11.0639 97.2736
lradius 29.4965
lwrist 2.17374
lhand -15.2355 1.07293
lfingers 7.12502
lthumb 10.9376 30.768
rfemur -17.9088 -9.39107 15.5076
rtibia 74.9216
rfoot 5.92968 -19.324
rtoes -1.7628
lfemur -12.9888 3.36646 -22.4895
ltibia 23.4315
lfoot -1.08862 9.52384
ltoes -7.6419
615
root 2.5944 17.9877 28.1436 -2.95231 0.747323 1.87602
lowerback 7.52125 3.63655 0.403624
upperback 0.346663 4.92886 1.28971
thorax -3.92851 2.44885 0.574026
lowerneck -29.5835 -4.06503 -4.70629
upperneck 15.9628 -3.86465 1.20398
head 9.96845 -1.92983 0.53798
rclavicle 3.54675e-014 9.54166e-015
rhumerus -39.8758 -33.3094 -61.235
rradius 19.8497
rwrist 5.78529
rhand -13.6859 -0.467742
rfingers 7.12502
rthumb 12.4319 -30.078
lclavicle 3.54675e-014 9.54166e-015
lhumerus -30.7367 -12.5096 97.8978
lradius 30.7955
lwrist 2.48241
lhand -15.0184 0.748333
lfingers 7.12502
lthumb 11.147 30.4323
rfemur -19.165 -9.83141 15.4765
rtibia 74.8035
rfoot 4.28856 -18.6435
rtoes -2.88312
lfemur -12.7276 3.17157 -22.6907
ltibia 23.8425
lfoot -1.63133 9.90425
ltoes -7.3782
616
root 2.60401 17.9774 28.2693 -2.94249 0.91601 2.08203
lowerback 7.62577 3.34587 -0.109966
upperback 0.332013 4.50576 1.44746
thorax -4.04999 2.24959 1.0604
lowerneck -29.4326 -3.7335 -4.38444
upperneck 15.8776 -3.49077 0.931575
head 9.89072 -1.77282 0.454791
rclavicle -2.51028e-014 1.51076e-014
rhumerus -39.8861 -32.1905 -61.75
rradius 20.5275
rwrist 4.12544
rhand -13.4989 -0.0731454
rfingers 7.12502
rthumb 12.6122 -29.6724
lclavicle -2.51028e-014 1.51076e-014
lhumerus -30.8664 -13.631 98.3855
lradius 32.1178
lwrist 2.75161
lhand -14.8377 0.408147
lfingers 7.12502
lthumb 11.3213 30.0826
rfemur -20.4185 -10.212 15.3607
rtibia 74.5219
rfoot 2.66927 -18.0822
rtoes -3.82517
lfemur -12.5272 2.96273 -22.9906
ltibia 24.2999
lfoot -2.1827 10.3135
ltoes -7.12253
617
root 2.61211 17.9637 28.3921 -2.91894 1.05796 2.26615
lowerback 7.76178 3.08605 -0.568018
upperback 0.31148 4.12702 1.59186
thorax -4.18206 2.07205 1.49887
lowerneck -29.3049 -3.44238 -4.11101
upperneck 15.8127 -3.16063 0.702901
head 9.8292 -1.63298 0.386644
rclavicle 3.75703e-014 -4.77083e-015
rhumerus -39.9124 -31.1913 -62.1918
rradius 21.1767
rwrist 2.52826
rhand -13.2981 0.294228
rfingers 7.12502
rthumb 12.8058 -29.293
lclavicle 3.75703e-014 -4.77083e-015
lhumerus -30.9623 -14.6983 98.7856
lradius 33.439
lwrist 3.02597
lhand -14.722 0.0109192
lfingers 7.12502
lthumb 11.4329 29.6792
rfemur -21.6555 -10.4962 15.3013
rtibia 74.0616
rfoot 1.106 -17.6978
rtoes -4.69161
lfemur -12.3767 2.7571 -23.2561
ltibia 24.8048
lfoot -2.73886 10.7365
ltoes -6.92599
618
root 2.61992 17.9478 28.5142 -2.90559 1.17528 2.46233
lowerback 7.88768 2.75329 -1.21533
upperback 0.29561 3.63665 1.82037
thorax -4.30829 1.84496 2.14806
lowerneck -29.1095 -3.00004 -3.68818
upperneck 15.6875 -2.65856 0.343915
head 9.72916 -1.42039 0.277202
rclavicle -3.05942e-014 7.95139e-016
rhumerus -39.7405 -29.9313 -62.7353
rradius 21.7494
rwrist 0.986047
rhand -13.122 0.616141
rfingers 7.12502
rthumb 12.9756 -28.9604
lclavicle -3.05942e-014 7.95139e-016
lhumerus -31.0135 -15.2751 99.0284
lradius 34.7475
lwrist 3.28998
lhand -14.665 -0.416767
lfingers 7.12502
lthumb 11.4878 29.2485
rfemur -22.8217 -10.6996 15.2331
rtibia 73.4112
rfoot -0.41039 -17.4771
rtoes -5.52756
lfemur -12.2347 2.58414 -23.5283
ltibia 25.3509
lfoot -3.31952 11.1444
ltoes -6.80778
619
root 2.6259 17.9302 28.6337 -2.88112 1.25056 2.6396
lowerback 8.09072 2.64034 -1.44188
upperback 0.267007 3.46647 1.8581
thorax -4.45956 1.76674 2.32501
lowerneck -28.961 -2.91479 -3.62437
upperneck 15.5912 -2.56134 0.281092
head 9.66688 -1.37928 0.262673
rclavicle 9.93923e-017 1.11319e-014
rhumerus -39.9506 -29.2795 -62.9887
rradius 22.4066
rwrist -0.584598
rhand -13.0055 0.779373
rfingers 7.12502
rthumb 13.0879 -28.79
lclavicle 9.93923e-017 1.11319e-014
lhumerus -31.0462 -16.5492 99.3415
lradius 35.9857
lwrist 3.6654
lhand -14.6408 -0.85303
lfingers 7.12502
lthumb 11.5112 28.8109
rfemur -23.9567 -10.7913 15.21
rtibia 72.5629
rfoot -1.83529 -17.449
rtoes -6.27572
lfemur -12.135 2.44263 -23.7641
ltibia 25.9341
lfoot -3.90931 11.5384
ltoes -6.75685
620
root 2.63054 17.9123 28.7528 -2.88003 1.29092 2.76025
lowerback 8.28556 2.48877 -1.72896
upperback 0.251562 3.2414 1.96626
thorax -4.59546 1.66381 2.61846
lowerneck -28.7671 -2.74099 -3.46346
upperneck 15.447 -2.36567 0.133687
head 9.57621 -1.29685 0.219251
rclavicle 1.08835e-014 -3.18055e-015
rhumerus -40.0388 -28.4482 -63.3215
rradius 23.0341
rwrist -2.06501
rhand -12.9531 0.921481
rfingers 7.12502
rthumb 13.1384 -28.6446
lclavicle 1.08835e-014 -3.18055e-015
lhumerus -31.0119 -17.4877 99.5289
lradius 37.1383
lwrist 4.01688
lhand -14.6519 -1.34781
lfingers 7.12502
lthumb 11.5005 28.3167
rfemur -24.9865 -10.7849 15.2517
rtibia 71.499
rfoot -3.13855 -17.589
rtoes -6.92022
lfemur -12.0183 2.37511 -23.9216
ltibia 26.5304
lfoot -4.52977 11.868
ltoes -6.74206
621
root 2.634 17.8944 28.872 -2.90066 1.29625 2.83773
lowerback 8.48683 2.35355 -1.97063
upperback 0.244881 3.04161 2.0816
thorax -4.72254 1.57287 2.89271
lowerneck -28.5729 -2.57139 -3.29663
upperneck 15.3118 -2.17892 -0.00873777
head 9.48961 -1.2173 0.174928
rclavicle -9.50439e-015 -2.14687e-014
rhumerus -40.1272 -27.6937 -63.6106
rradius 23.6205
rwrist -3.37806
rhand -12.9882 0.994521
rfingers 7.12502
rthumb 13.1046 -28.5737
lclavicle -9.50439e-015 -2.14687e-014
lhumerus -30.9188 -18.3178 99.6319
lradius 38.1867
lwrist 4.37318
lhand -14.7052 -1.90581
lfingers 7.12502
lthumb 11.4491 27.7616
rfemur -25.9062 -10.6837 15.3316
rtibia 70.2172
rfoot -4.31943 -17.8699
rtoes -7.38085
lfemur -11.8643 2.29829 -24.0188
ltibia 27.117
lfoot -5.15746 12.2177
ltoes -6.71842
